<mxfile host="app.diagrams.net" modified="2022-06-21T11:56:27.495Z" agent="5.0 (Windows NT 10.0; Win64; x64) AppleWebKit/537.36 (KHTML, like Gecko) Chrome/102.0.0.0 Safari/537.36" etag="lfgLdkt69tyJ7BL6VK-p" version="20.0.1" type="github">
  <diagram id="pM6_184R_akTny7oLLfo" name="Page-1">
    <mxGraphModel dx="2165" dy="497" grid="1" gridSize="10" guides="1" tooltips="1" connect="1" arrows="1" fold="1" page="1" pageScale="1" pageWidth="1200" pageHeight="1920" math="0" shadow="0">
      <root>
        <mxCell id="0" />
        <mxCell id="1" parent="0" />
        <mxCell id="U9G1X6yg3VPROTmr20GH-8" style="edgeStyle=orthogonalEdgeStyle;rounded=0;orthogonalLoop=1;jettySize=auto;html=1;exitX=0.5;exitY=0;exitDx=0;exitDy=0;entryX=0.5;entryY=1;entryDx=0;entryDy=0;" parent="1" source="U9G1X6yg3VPROTmr20GH-1" target="U9G1X6yg3VPROTmr20GH-3" edge="1">
          <mxGeometry relative="1" as="geometry" />
        </mxCell>
        <mxCell id="U9G1X6yg3VPROTmr20GH-1" value="&lt;pre style=&quot;background-color:#ffffff;color:#080808;font-family:&#39;JetBrains Mono&#39;,monospace;font-size:9.0pt;&quot;&gt;&lt;span style=&quot;color:#000000;&quot;&gt;ApplicationEventPublisherAware&lt;/span&gt;&lt;/pre&gt;" style="rounded=1;whiteSpace=wrap;html=1;" parent="1" vertex="1">
          <mxGeometry x="130" y="130" width="210" height="60" as="geometry" />
        </mxCell>
        <mxCell id="U9G1X6yg3VPROTmr20GH-9" style="edgeStyle=orthogonalEdgeStyle;rounded=0;orthogonalLoop=1;jettySize=auto;html=1;exitX=0.5;exitY=0;exitDx=0;exitDy=0;entryX=0.5;entryY=1;entryDx=0;entryDy=0;" parent="1" source="U9G1X6yg3VPROTmr20GH-2" target="U9G1X6yg3VPROTmr20GH-3" edge="1">
          <mxGeometry relative="1" as="geometry" />
        </mxCell>
        <mxCell id="U9G1X6yg3VPROTmr20GH-2" value="&lt;pre style=&quot;background-color:#ffffff;color:#080808;font-family:&#39;JetBrains Mono&#39;,monospace;font-size:9.0pt;&quot;&gt;&lt;span style=&quot;color:#000000;&quot;&gt;MessageSourceAware&lt;/span&gt;&lt;/pre&gt;" style="rounded=1;whiteSpace=wrap;html=1;" parent="1" vertex="1">
          <mxGeometry x="350" y="130" width="190" height="60" as="geometry" />
        </mxCell>
        <mxCell id="U9G1X6yg3VPROTmr20GH-3" value="&lt;pre style=&quot;background-color:#ffffff;color:#080808;font-family:&#39;JetBrains Mono&#39;,monospace;font-size:9.0pt;&quot;&gt;&lt;span style=&quot;color:#000000;&quot;&gt;Aware&lt;/span&gt;&lt;/pre&gt;" style="rounded=0;whiteSpace=wrap;html=1;fillColor=#fff2cc;strokeColor=#d6b656;" parent="1" vertex="1">
          <mxGeometry x="250" y="30" width="120" height="60" as="geometry" />
        </mxCell>
        <mxCell id="U9G1X6yg3VPROTmr20GH-10" style="edgeStyle=orthogonalEdgeStyle;rounded=0;orthogonalLoop=1;jettySize=auto;html=1;exitX=0.5;exitY=0;exitDx=0;exitDy=0;entryX=0.5;entryY=1;entryDx=0;entryDy=0;" parent="1" source="U9G1X6yg3VPROTmr20GH-6" target="U9G1X6yg3VPROTmr20GH-1" edge="1">
          <mxGeometry relative="1" as="geometry" />
        </mxCell>
        <mxCell id="U9G1X6yg3VPROTmr20GH-11" style="edgeStyle=orthogonalEdgeStyle;rounded=0;orthogonalLoop=1;jettySize=auto;html=1;exitX=0.5;exitY=0;exitDx=0;exitDy=0;entryX=0.586;entryY=1.067;entryDx=0;entryDy=0;entryPerimeter=0;" parent="1" source="U9G1X6yg3VPROTmr20GH-6" target="U9G1X6yg3VPROTmr20GH-2" edge="1">
          <mxGeometry relative="1" as="geometry" />
        </mxCell>
        <mxCell id="U9G1X6yg3VPROTmr20GH-14" style="edgeStyle=orthogonalEdgeStyle;rounded=0;orthogonalLoop=1;jettySize=auto;html=1;exitX=1;exitY=0.5;exitDx=0;exitDy=0;entryX=0.5;entryY=1;entryDx=0;entryDy=0;" parent="1" source="U9G1X6yg3VPROTmr20GH-6" target="U9G1X6yg3VPROTmr20GH-12" edge="1">
          <mxGeometry relative="1" as="geometry" />
        </mxCell>
        <mxCell id="U9G1X6yg3VPROTmr20GH-17" style="edgeStyle=orthogonalEdgeStyle;rounded=0;orthogonalLoop=1;jettySize=auto;html=1;exitX=0;exitY=0.5;exitDx=0;exitDy=0;entryX=0.5;entryY=1;entryDx=0;entryDy=0;" parent="1" source="U9G1X6yg3VPROTmr20GH-6" target="U9G1X6yg3VPROTmr20GH-15" edge="1">
          <mxGeometry relative="1" as="geometry" />
        </mxCell>
        <mxCell id="U9G1X6yg3VPROTmr20GH-19" style="edgeStyle=orthogonalEdgeStyle;rounded=0;orthogonalLoop=1;jettySize=auto;html=1;exitX=0;exitY=0.5;exitDx=0;exitDy=0;entryX=0.5;entryY=1;entryDx=0;entryDy=0;" parent="1" source="U9G1X6yg3VPROTmr20GH-6" target="U9G1X6yg3VPROTmr20GH-18" edge="1">
          <mxGeometry relative="1" as="geometry" />
        </mxCell>
        <mxCell id="U9G1X6yg3VPROTmr20GH-23" style="edgeStyle=orthogonalEdgeStyle;rounded=0;orthogonalLoop=1;jettySize=auto;html=1;exitX=0;exitY=0.5;exitDx=0;exitDy=0;entryX=0.5;entryY=1;entryDx=0;entryDy=0;" parent="1" source="U9G1X6yg3VPROTmr20GH-6" target="U9G1X6yg3VPROTmr20GH-22" edge="1">
          <mxGeometry relative="1" as="geometry" />
        </mxCell>
        <mxCell id="U9G1X6yg3VPROTmr20GH-27" style="edgeStyle=orthogonalEdgeStyle;rounded=0;orthogonalLoop=1;jettySize=auto;html=1;exitX=1;exitY=0.5;exitDx=0;exitDy=0;entryX=0.5;entryY=1;entryDx=0;entryDy=0;" parent="1" source="U9G1X6yg3VPROTmr20GH-6" target="U9G1X6yg3VPROTmr20GH-21" edge="1">
          <mxGeometry relative="1" as="geometry" />
        </mxCell>
        <mxCell id="U9G1X6yg3VPROTmr20GH-28" style="edgeStyle=orthogonalEdgeStyle;rounded=0;orthogonalLoop=1;jettySize=auto;html=1;exitX=1;exitY=0.5;exitDx=0;exitDy=0;entryX=0.5;entryY=1;entryDx=0;entryDy=0;" parent="1" source="U9G1X6yg3VPROTmr20GH-6" target="U9G1X6yg3VPROTmr20GH-25" edge="1">
          <mxGeometry relative="1" as="geometry" />
        </mxCell>
        <mxCell id="U9G1X6yg3VPROTmr20GH-29" style="edgeStyle=orthogonalEdgeStyle;rounded=0;orthogonalLoop=1;jettySize=auto;html=1;exitX=1;exitY=0.5;exitDx=0;exitDy=0;entryX=0.5;entryY=1;entryDx=0;entryDy=0;" parent="1" source="U9G1X6yg3VPROTmr20GH-6" target="U9G1X6yg3VPROTmr20GH-26" edge="1">
          <mxGeometry relative="1" as="geometry" />
        </mxCell>
        <mxCell id="U9G1X6yg3VPROTmr20GH-6" value="&lt;pre style=&quot;background-color:#ffffff;color:#080808;font-family:&#39;JetBrains Mono&#39;,monospace;font-size:9.0pt;&quot;&gt;&lt;span style=&quot;color:#000000;&quot;&gt;GenericFilterBean&lt;/span&gt;&lt;/pre&gt;" style="rounded=1;whiteSpace=wrap;html=1;fillColor=#dae8fc;strokeColor=#6c8ebf;" parent="1" vertex="1">
          <mxGeometry x="290" y="280" width="120" height="60" as="geometry" />
        </mxCell>
        <mxCell id="U9G1X6yg3VPROTmr20GH-12" value="&lt;pre style=&quot;background-color:#ffffff;color:#080808;font-family:&#39;JetBrains Mono&#39;,monospace;font-size:9.0pt;&quot;&gt;&lt;span style=&quot;color:#000000;&quot;&gt;Filter&lt;/span&gt;&lt;/pre&gt;" style="rounded=1;whiteSpace=wrap;html=1;fillColor=#fff2cc;strokeColor=#d6b656;" parent="1" vertex="1">
          <mxGeometry x="540" y="30" width="120" height="60" as="geometry" />
        </mxCell>
        <mxCell id="U9G1X6yg3VPROTmr20GH-16" style="edgeStyle=orthogonalEdgeStyle;rounded=0;orthogonalLoop=1;jettySize=auto;html=1;exitX=0.5;exitY=0;exitDx=0;exitDy=0;entryX=0;entryY=0.5;entryDx=0;entryDy=0;" parent="1" source="U9G1X6yg3VPROTmr20GH-15" target="U9G1X6yg3VPROTmr20GH-3" edge="1">
          <mxGeometry relative="1" as="geometry" />
        </mxCell>
        <mxCell id="U9G1X6yg3VPROTmr20GH-15" value="&lt;pre style=&quot;background-color:#ffffff;color:#080808;font-family:&#39;JetBrains Mono&#39;,monospace;font-size:9.0pt;&quot;&gt;&lt;span style=&quot;color:#000000;&quot;&gt;BeanNameAware&lt;/span&gt;&lt;/pre&gt;" style="rounded=1;whiteSpace=wrap;html=1;" parent="1" vertex="1">
          <mxGeometry x="-10" y="110" width="120" height="60" as="geometry" />
        </mxCell>
        <mxCell id="U9G1X6yg3VPROTmr20GH-20" style="edgeStyle=orthogonalEdgeStyle;rounded=0;orthogonalLoop=1;jettySize=auto;html=1;exitX=0.5;exitY=0;exitDx=0;exitDy=0;entryX=0;entryY=0.5;entryDx=0;entryDy=0;" parent="1" source="U9G1X6yg3VPROTmr20GH-18" target="U9G1X6yg3VPROTmr20GH-3" edge="1">
          <mxGeometry relative="1" as="geometry" />
        </mxCell>
        <mxCell id="U9G1X6yg3VPROTmr20GH-18" value="&lt;pre style=&quot;background-color:#ffffff;color:#080808;font-family:&#39;JetBrains Mono&#39;,monospace;font-size:9.0pt;&quot;&gt;&lt;span style=&quot;color:#000000;&quot;&gt;EnvironmentAware&lt;/span&gt;&lt;/pre&gt;" style="rounded=1;whiteSpace=wrap;html=1;" parent="1" vertex="1">
          <mxGeometry x="-150" y="110" width="120" height="60" as="geometry" />
        </mxCell>
        <mxCell id="U9G1X6yg3VPROTmr20GH-21" value="&lt;pre style=&quot;background-color:#ffffff;color:#080808;font-family:&#39;JetBrains Mono&#39;,monospace;font-size:9.0pt;&quot;&gt;&lt;span style=&quot;color:#000000;&quot;&gt;EnvironmentCapable&lt;/span&gt;&lt;/pre&gt;" style="rounded=1;whiteSpace=wrap;html=1;fillColor=#fff2cc;strokeColor=#d6b656;" parent="1" vertex="1">
          <mxGeometry x="710" y="30" width="120" height="60" as="geometry" />
        </mxCell>
        <mxCell id="U9G1X6yg3VPROTmr20GH-24" style="edgeStyle=orthogonalEdgeStyle;rounded=0;orthogonalLoop=1;jettySize=auto;html=1;exitX=0.5;exitY=0;exitDx=0;exitDy=0;entryX=0;entryY=0.5;entryDx=0;entryDy=0;" parent="1" source="U9G1X6yg3VPROTmr20GH-22" target="U9G1X6yg3VPROTmr20GH-3" edge="1">
          <mxGeometry relative="1" as="geometry" />
        </mxCell>
        <mxCell id="U9G1X6yg3VPROTmr20GH-22" value="&lt;pre style=&quot;background-color:#ffffff;color:#080808;font-family:&#39;JetBrains Mono&#39;,monospace;font-size:9.0pt;&quot;&gt;&lt;span style=&quot;color:#000000;&quot;&gt;ServletContextAware&lt;/span&gt;&lt;/pre&gt;" style="rounded=1;whiteSpace=wrap;html=1;" parent="1" vertex="1">
          <mxGeometry x="-280" y="110" width="120" height="60" as="geometry" />
        </mxCell>
        <mxCell id="U9G1X6yg3VPROTmr20GH-25" value="&lt;pre style=&quot;background-color:#ffffff;color:#080808;font-family:&#39;JetBrains Mono&#39;,monospace;font-size:9.0pt;&quot;&gt;&lt;span style=&quot;color:#000000;&quot;&gt;InitializingBean&lt;/span&gt;&lt;/pre&gt;" style="rounded=1;whiteSpace=wrap;html=1;fillColor=#fff2cc;strokeColor=#d6b656;" parent="1" vertex="1">
          <mxGeometry x="850" y="30" width="120" height="60" as="geometry" />
        </mxCell>
        <mxCell id="U9G1X6yg3VPROTmr20GH-26" value="&lt;pre style=&quot;background-color:#ffffff;color:#080808;font-family:&#39;JetBrains Mono&#39;,monospace;font-size:9.0pt;&quot;&gt;&lt;span style=&quot;color:#000000;&quot;&gt;DisposableBean&lt;/span&gt;&lt;/pre&gt;" style="rounded=1;whiteSpace=wrap;html=1;fillColor=#fff2cc;strokeColor=#d6b656;" parent="1" vertex="1">
          <mxGeometry x="990" y="30" width="120" height="60" as="geometry" />
        </mxCell>
        <mxCell id="U9G1X6yg3VPROTmr20GH-30" value="" style="rounded=1;whiteSpace=wrap;html=1;fillColor=#dae8fc;strokeColor=#6c8ebf;" parent="1" vertex="1">
          <mxGeometry x="160" y="340" width="390" height="430" as="geometry" />
        </mxCell>
        <mxCell id="U9G1X6yg3VPROTmr20GH-31" value="&lt;pre style=&quot;background-color:#ffffff;color:#080808;font-family:&#39;JetBrains Mono&#39;,monospace;font-size:9.0pt;&quot;&gt;&lt;span style=&quot;color:#871094;&quot;&gt;beanName&lt;/span&gt;&lt;/pre&gt;" style="rounded=1;whiteSpace=wrap;html=1;" parent="1" vertex="1">
          <mxGeometry x="210" y="360" width="100" height="40" as="geometry" />
        </mxCell>
        <mxCell id="U9G1X6yg3VPROTmr20GH-37" style="edgeStyle=orthogonalEdgeStyle;rounded=0;orthogonalLoop=1;jettySize=auto;html=1;exitX=1;exitY=0.5;exitDx=0;exitDy=0;" parent="1" source="U9G1X6yg3VPROTmr20GH-32" target="U9G1X6yg3VPROTmr20GH-36" edge="1">
          <mxGeometry relative="1" as="geometry" />
        </mxCell>
        <mxCell id="U9G1X6yg3VPROTmr20GH-32" value="&lt;pre style=&quot;background-color:#ffffff;color:#080808;font-family:&#39;JetBrains Mono&#39;,monospace;font-size:9.0pt;&quot;&gt;&lt;span style=&quot;color:#000000;&quot;&gt;Environment&lt;/span&gt;&lt;/pre&gt;" style="rounded=1;whiteSpace=wrap;html=1;" parent="1" vertex="1">
          <mxGeometry x="350" y="370" width="120" height="60" as="geometry" />
        </mxCell>
        <mxCell id="U9G1X6yg3VPROTmr20GH-33" value="&lt;pre style=&quot;background-color:#ffffff;color:#080808;font-family:&#39;JetBrains Mono&#39;,monospace;font-size:9.0pt;&quot;&gt;&lt;span style=&quot;color:#000000;&quot;&gt;ServletContext&lt;/span&gt;&lt;/pre&gt;" style="rounded=1;whiteSpace=wrap;html=1;fillColor=#fff2cc;strokeColor=#d6b656;" parent="1" vertex="1">
          <mxGeometry x="210" y="440" width="120" height="60" as="geometry" />
        </mxCell>
        <mxCell id="U9G1X6yg3VPROTmr20GH-34" value="&lt;pre style=&quot;background-color:#ffffff;color:#080808;font-family:&#39;JetBrains Mono&#39;,monospace;font-size:9.0pt;&quot;&gt;&lt;span style=&quot;color:#000000;&quot;&gt;FilterConfig&lt;/span&gt;&lt;/pre&gt;" style="rounded=1;whiteSpace=wrap;html=1;fillColor=#fff2cc;strokeColor=#d6b656;" parent="1" vertex="1">
          <mxGeometry x="360" y="450" width="120" height="60" as="geometry" />
        </mxCell>
        <mxCell id="U9G1X6yg3VPROTmr20GH-35" value="&lt;pre style=&quot;background-color:#ffffff;color:#080808;font-family:&#39;JetBrains Mono&#39;,monospace;font-size:9.0pt;&quot;&gt;&lt;span style=&quot;color:#000000;&quot;&gt;Set&lt;/span&gt;&amp;lt;&lt;span style=&quot;color:#000000;&quot;&gt;String&lt;/span&gt;&amp;gt; &lt;span style=&quot;color:#871094;&quot;&gt;requiredProperties&lt;/span&gt;&lt;/pre&gt;" style="rounded=1;whiteSpace=wrap;html=1;" parent="1" vertex="1">
          <mxGeometry x="230" y="530" width="230" height="60" as="geometry" />
        </mxCell>
        <mxCell id="U9G1X6yg3VPROTmr20GH-36" value="&lt;pre style=&quot;background-color:#ffffff;color:#080808;font-family:&#39;JetBrains Mono&#39;,monospace;font-size:9.0pt;&quot;&gt;&lt;span style=&quot;color:#000000;&quot;&gt;PropertyResolver&lt;/span&gt;&lt;/pre&gt;" style="rounded=1;whiteSpace=wrap;html=1;fillColor=#fff2cc;strokeColor=#d6b656;" parent="1" vertex="1">
          <mxGeometry x="590" y="370" width="120" height="60" as="geometry" />
        </mxCell>
        <mxCell id="U9G1X6yg3VPROTmr20GH-40" style="edgeStyle=orthogonalEdgeStyle;rounded=0;orthogonalLoop=1;jettySize=auto;html=1;exitX=1;exitY=0.5;exitDx=0;exitDy=0;" parent="1" source="U9G1X6yg3VPROTmr20GH-38" target="U9G1X6yg3VPROTmr20GH-39" edge="1">
          <mxGeometry relative="1" as="geometry" />
        </mxCell>
        <mxCell id="U9G1X6yg3VPROTmr20GH-38" value="&lt;pre style=&quot;background-color:#ffffff;color:#080808;font-family:&#39;JetBrains Mono&#39;,monospace;font-size:9.0pt;&quot;&gt;StandardServletEnvironment&lt;/pre&gt;" style="rounded=1;whiteSpace=wrap;html=1;fillColor=#dae8fc;strokeColor=#6c8ebf;" parent="1" vertex="1">
          <mxGeometry x="285" y="600" width="175" height="60" as="geometry" />
        </mxCell>
        <mxCell id="U9G1X6yg3VPROTmr20GH-51" style="edgeStyle=orthogonalEdgeStyle;rounded=0;orthogonalLoop=1;jettySize=auto;html=1;exitX=1;exitY=0.5;exitDx=0;exitDy=0;entryX=0;entryY=0.5;entryDx=0;entryDy=0;" parent="1" source="U9G1X6yg3VPROTmr20GH-39" target="U9G1X6yg3VPROTmr20GH-41" edge="1">
          <mxGeometry relative="1" as="geometry" />
        </mxCell>
        <mxCell id="U9G1X6yg3VPROTmr20GH-39" value="&lt;pre style=&quot;background-color:#ffffff;color:#080808;font-family:&#39;JetBrains Mono&#39;,monospace;font-size:9.0pt;&quot;&gt;&lt;span style=&quot;color:#000000;&quot;&gt;StandardEnvironment&lt;/span&gt;&lt;/pre&gt;" style="rounded=1;whiteSpace=wrap;html=1;fillColor=#dae8fc;strokeColor=#6c8ebf;" parent="1" vertex="1">
          <mxGeometry x="600" y="540" width="140" height="60" as="geometry" />
        </mxCell>
        <mxCell id="U9G1X6yg3VPROTmr20GH-44" style="edgeStyle=orthogonalEdgeStyle;rounded=0;orthogonalLoop=1;jettySize=auto;html=1;exitX=0.5;exitY=0;exitDx=0;exitDy=0;entryX=0.5;entryY=1;entryDx=0;entryDy=0;" parent="1" source="U9G1X6yg3VPROTmr20GH-41" target="U9G1X6yg3VPROTmr20GH-42" edge="1">
          <mxGeometry relative="1" as="geometry" />
        </mxCell>
        <mxCell id="U9G1X6yg3VPROTmr20GH-41" value="&lt;pre style=&quot;background-color:#ffffff;color:#080808;font-family:&#39;JetBrains Mono&#39;,monospace;font-size:9.0pt;&quot;&gt;&lt;span style=&quot;color:#000000;&quot;&gt;ConfigurableWebEnvironment&lt;/span&gt;&lt;/pre&gt;" style="rounded=1;whiteSpace=wrap;html=1;" parent="1" vertex="1">
          <mxGeometry x="790" y="540" width="180" height="60" as="geometry" />
        </mxCell>
        <mxCell id="U9G1X6yg3VPROTmr20GH-46" style="edgeStyle=orthogonalEdgeStyle;rounded=0;orthogonalLoop=1;jettySize=auto;html=1;exitX=0.5;exitY=0;exitDx=0;exitDy=0;entryX=0.5;entryY=1;entryDx=0;entryDy=0;" parent="1" source="U9G1X6yg3VPROTmr20GH-42" target="U9G1X6yg3VPROTmr20GH-45" edge="1">
          <mxGeometry relative="1" as="geometry" />
        </mxCell>
        <mxCell id="U9G1X6yg3VPROTmr20GH-49" style="edgeStyle=orthogonalEdgeStyle;rounded=0;orthogonalLoop=1;jettySize=auto;html=1;exitX=0;exitY=0.5;exitDx=0;exitDy=0;" parent="1" source="U9G1X6yg3VPROTmr20GH-42" edge="1">
          <mxGeometry relative="1" as="geometry">
            <mxPoint x="760" y="480" as="targetPoint" />
          </mxGeometry>
        </mxCell>
        <mxCell id="U9G1X6yg3VPROTmr20GH-42" value="&lt;pre style=&quot;background-color:#ffffff;color:#080808;font-family:&#39;JetBrains Mono&#39;,monospace;font-size:9.0pt;&quot;&gt;&lt;span style=&quot;color:#000000;&quot;&gt;ConfigurableEnvironment&lt;/span&gt;&lt;/pre&gt;" style="rounded=1;whiteSpace=wrap;html=1;" parent="1" vertex="1">
          <mxGeometry x="810" y="450" width="160" height="60" as="geometry" />
        </mxCell>
        <mxCell id="U9G1X6yg3VPROTmr20GH-50" style="edgeStyle=orthogonalEdgeStyle;rounded=0;orthogonalLoop=1;jettySize=auto;html=1;entryX=1;entryY=0.5;entryDx=0;entryDy=0;" parent="1" source="U9G1X6yg3VPROTmr20GH-45" target="U9G1X6yg3VPROTmr20GH-36" edge="1">
          <mxGeometry relative="1" as="geometry" />
        </mxCell>
        <mxCell id="U9G1X6yg3VPROTmr20GH-45" value="&lt;pre style=&quot;background-color:#ffffff;color:#080808;font-family:&#39;JetBrains Mono&#39;,monospace;font-size:9.0pt;&quot;&gt;&lt;span style=&quot;color:#000000;&quot;&gt;Environment&lt;/span&gt;&lt;/pre&gt;" style="rounded=1;whiteSpace=wrap;html=1;" parent="1" vertex="1">
          <mxGeometry x="830" y="370" width="120" height="60" as="geometry" />
        </mxCell>
        <mxCell id="U9G1X6yg3VPROTmr20GH-48" style="edgeStyle=orthogonalEdgeStyle;rounded=0;orthogonalLoop=1;jettySize=auto;html=1;exitX=0.5;exitY=0;exitDx=0;exitDy=0;entryX=0.5;entryY=1;entryDx=0;entryDy=0;" parent="1" source="U9G1X6yg3VPROTmr20GH-47" target="U9G1X6yg3VPROTmr20GH-36" edge="1">
          <mxGeometry relative="1" as="geometry" />
        </mxCell>
        <mxCell id="U9G1X6yg3VPROTmr20GH-47" value="&lt;pre style=&quot;background-color:#ffffff;color:#080808;font-family:&#39;JetBrains Mono&#39;,monospace;font-size:9.0pt;&quot;&gt;&lt;span style=&quot;color:#000000;&quot;&gt;ConfigurablePropertyResolver&lt;/span&gt;&lt;/pre&gt;" style="rounded=1;whiteSpace=wrap;html=1;" parent="1" vertex="1">
          <mxGeometry x="570" y="450" width="180" height="60" as="geometry" />
        </mxCell>
        <mxCell id="U9G1X6yg3VPROTmr20GH-53" style="edgeStyle=orthogonalEdgeStyle;rounded=0;orthogonalLoop=1;jettySize=auto;html=1;exitX=1;exitY=0.5;exitDx=0;exitDy=0;entryX=0;entryY=0.5;entryDx=0;entryDy=0;" parent="1" source="U9G1X6yg3VPROTmr20GH-52" target="U9G1X6yg3VPROTmr20GH-6" edge="1">
          <mxGeometry relative="1" as="geometry" />
        </mxCell>
        <mxCell id="U9G1X6yg3VPROTmr20GH-52" value="&lt;pre style=&quot;background-color:#ffffff;color:#080808;font-family:&#39;JetBrains Mono&#39;,monospace;font-size:9.0pt;&quot;&gt;&lt;span style=&quot;color:#000000;&quot;&gt;AbstractAuthenticationProcessingFilter&lt;/span&gt;&lt;/pre&gt;" style="rounded=1;whiteSpace=wrap;html=1;fillColor=#dae8fc;strokeColor=#6c8ebf;" parent="1" vertex="1">
          <mxGeometry x="-225" y="370" width="270" height="60" as="geometry" />
        </mxCell>
        <mxCell id="U9G1X6yg3VPROTmr20GH-54" value="" style="rounded=1;whiteSpace=wrap;html=1;fillColor=#dae8fc;strokeColor=#6c8ebf;" parent="1" vertex="1">
          <mxGeometry x="-440" y="430" width="560" height="490" as="geometry" />
        </mxCell>
        <mxCell id="U9G1X6yg3VPROTmr20GH-55" value="&lt;pre style=&quot;background-color:#ffffff;color:#080808;font-family:&#39;JetBrains Mono&#39;,monospace;font-size:9.0pt;&quot;&gt;&lt;span style=&quot;color:#000000;&quot;&gt;ApplicationEventPublisher&lt;/span&gt;&lt;/pre&gt;" style="rounded=1;whiteSpace=wrap;html=1;" parent="1" vertex="1">
          <mxGeometry x="-415" y="450" width="190" height="60" as="geometry" />
        </mxCell>
        <mxCell id="U9G1X6yg3VPROTmr20GH-58" style="edgeStyle=orthogonalEdgeStyle;rounded=0;orthogonalLoop=1;jettySize=auto;html=1;exitX=0;exitY=0.5;exitDx=0;exitDy=0;entryX=0.5;entryY=1;entryDx=0;entryDy=0;" parent="1" source="U9G1X6yg3VPROTmr20GH-56" target="U9G1X6yg3VPROTmr20GH-57" edge="1">
          <mxGeometry relative="1" as="geometry" />
        </mxCell>
        <mxCell id="U9G1X6yg3VPROTmr20GH-56" value="&lt;pre style=&quot;background-color:#ffffff;color:#080808;font-family:&#39;JetBrains Mono&#39;,monospace;font-size:9.0pt;&quot;&gt;WebAuthenticationDetailsSource&lt;/pre&gt;" style="rounded=1;whiteSpace=wrap;html=1;" parent="1" vertex="1">
          <mxGeometry x="-415" y="520" width="240" height="50" as="geometry" />
        </mxCell>
        <mxCell id="U9G1X6yg3VPROTmr20GH-57" value="&lt;pre style=&quot;background-color:#ffffff;color:#080808;font-family:&#39;JetBrains Mono&#39;,monospace;font-size:9.0pt;&quot;&gt;&lt;span style=&quot;color:#000000;&quot;&gt;AuthenticationDetailsSource&lt;/span&gt;&lt;/pre&gt;" style="rounded=1;whiteSpace=wrap;html=1;" parent="1" vertex="1">
          <mxGeometry x="-570" y="370" width="190" height="50" as="geometry" />
        </mxCell>
        <mxCell id="U9G1X6yg3VPROTmr20GH-59" value="&lt;pre style=&quot;background-color:#ffffff;color:#080808;font-family:&#39;JetBrains Mono&#39;,monospace;font-size:9.0pt;&quot;&gt;&lt;span style=&quot;color:#000000;&quot;&gt;AuthenticationManager&lt;/span&gt;&lt;/pre&gt;" style="rounded=1;whiteSpace=wrap;html=1;" parent="1" vertex="1">
          <mxGeometry x="-415" y="580" width="195" height="60" as="geometry" />
        </mxCell>
        <mxCell id="U9G1X6yg3VPROTmr20GH-60" value="&lt;pre style=&quot;background-color:#ffffff;color:#080808;font-family:&#39;JetBrains Mono&#39;,monospace;font-size:9.0pt;&quot;&gt;&lt;span style=&quot;color:#000000;&quot;&gt;MessageSourceAccessor&lt;/span&gt;&lt;/pre&gt;" style="rounded=1;whiteSpace=wrap;html=1;" parent="1" vertex="1">
          <mxGeometry x="-415" y="650" width="195" height="50" as="geometry" />
        </mxCell>
        <mxCell id="U9G1X6yg3VPROTmr20GH-62" value="&lt;pre style=&quot;background-color:#ffffff;color:#080808;font-family:&#39;JetBrains Mono&#39;,monospace;font-size:9.0pt;&quot;&gt;&lt;span style=&quot;color:#000000;&quot;&gt;RememberMeServices&lt;/span&gt;&lt;/pre&gt;" style="rounded=1;whiteSpace=wrap;html=1;" parent="1" vertex="1">
          <mxGeometry x="-160" y="450" width="160" height="60" as="geometry" />
        </mxCell>
        <mxCell id="U9G1X6yg3VPROTmr20GH-63" value="&lt;pre style=&quot;background-color:#ffffff;color:#080808;font-family:&#39;JetBrains Mono&#39;,monospace;font-size:9.0pt;&quot;&gt;&lt;span style=&quot;color:#000000;&quot;&gt;RequestMatcher&lt;/span&gt;&lt;/pre&gt;" style="rounded=1;whiteSpace=wrap;html=1;" parent="1" vertex="1">
          <mxGeometry x="-140" y="530" width="120" height="60" as="geometry" />
        </mxCell>
        <mxCell id="U9G1X6yg3VPROTmr20GH-64" value="&lt;pre style=&quot;background-color:#ffffff;color:#080808;font-family:&#39;JetBrains Mono&#39;,monospace;font-size:9.0pt;&quot;&gt;&lt;span style=&quot;color:#000000;&quot;&gt;SessionAuthenticationStrategy&lt;/span&gt;&lt;/pre&gt;" style="rounded=1;whiteSpace=wrap;html=1;" parent="1" vertex="1">
          <mxGeometry x="-190" y="600" width="200" height="60" as="geometry" />
        </mxCell>
        <mxCell id="U9G1X6yg3VPROTmr20GH-65" value="&lt;pre style=&quot;background-color:#ffffff;color:#080808;font-family:&#39;JetBrains Mono&#39;,monospace;font-size:9.0pt;&quot;&gt;&lt;span style=&quot;color:#000000;&quot;&gt;AuthenticationSuccessHandler&lt;/span&gt;&lt;/pre&gt;" style="rounded=1;whiteSpace=wrap;html=1;" parent="1" vertex="1">
          <mxGeometry x="-160" y="670" width="200" height="40" as="geometry" />
        </mxCell>
        <mxCell id="U9G1X6yg3VPROTmr20GH-66" value="&lt;pre style=&quot;background-color:#ffffff;color:#080808;font-family:&#39;JetBrains Mono&#39;,monospace;font-size:9.0pt;&quot;&gt;&lt;span style=&quot;color:#000000;&quot;&gt;AuthenticationFailureHandler&lt;/span&gt;&lt;/pre&gt;" style="rounded=1;whiteSpace=wrap;html=1;" parent="1" vertex="1">
          <mxGeometry x="-190" y="720" width="230" height="40" as="geometry" />
        </mxCell>
        <mxCell id="U9G1X6yg3VPROTmr20GH-68" value="&lt;pre style=&quot;background-color:#ffffff;color:#080808;font-family:&#39;JetBrains Mono&#39;,monospace;font-size:9.0pt;&quot;&gt;AntPathRequestMatcher&lt;/pre&gt;" style="rounded=1;whiteSpace=wrap;html=1;" parent="1" vertex="1">
          <mxGeometry x="-400" y="730" width="180" height="50" as="geometry" />
        </mxCell>
        <mxCell id="RwF6sYBldyr7odMLDGwx-1" value="&lt;pre style=&quot;background-color:#ffffff;color:#080808;font-family:&#39;Consolas&#39;;font-size:10.5pt;&quot;&gt;FilterChainProxy&lt;/pre&gt;" style="rounded=1;whiteSpace=wrap;html=1;fillColor=#dae8fc;strokeColor=#6c8ebf;" vertex="1" parent="1">
          <mxGeometry x="-1100" y="270" width="190" height="70" as="geometry" />
        </mxCell>
      </root>
    </mxGraphModel>
  </diagram>
</mxfile>
